<svg xmlns="http://www.w3.org/2000/svg" width="2400" height="1350" viewBox="0 0 2400 1350"><defs><radialGradient id="bg" cx=".68" cy=".45" r=".8"><stop offset="0" stop-color="#0e2a52"/><stop offset=".6" stop-color="#051226"/><stop offset="1" stop-color="#020812"/></radialGradient>
<filter id="glow" x="-50%" y="-50%" width="200%" height="200%"><feGaussianBlur stdDeviation="10"/></filter>
<filter id="glow2" x="-50%" y="-50%" width="200%" height="200%"><feGaussianBlur stdDeviation="28"/></filter>
<filter id="soft" x="-20%" y="-20%" width="140%" height="140%"><feGaussianBlur stdDeviation="3"/></filter>
<radialGradient id="vignette" cx="50%" cy="50%" r="75%"><stop offset="60%" stop-color="#000" stop-opacity="0"/><stop offset="100%" stop-color="#000" stop-opacity=".55"/></radialGradient>
</defs><rect width="2400" height="1350" fill="url(#bg)"/><circle cx="2050" cy="1550" r="900" fill="#0b2547" stroke="#5aa2ff" stroke-opacity=".35" stroke-width="3"/><ellipse cx="1200" cy="760" rx="440" ry="150" fill="none" stroke="#5aa2ff" stroke-opacity="0.4" stroke-width="2" transform="rotate(-12 1200 760)"/><ellipse cx="1200" cy="760" rx="620" ry="210" fill="none" stroke="#5aa2ff" stroke-opacity="0.3" stroke-width="2" transform="rotate(-12 1200 760)"/><ellipse cx="1200" cy="760" rx="800" ry="270" fill="none" stroke="#5aa2ff" stroke-opacity="0.3" stroke-width="2" transform="rotate(-12 1200 760)"/><ellipse cx="1200" cy="760" rx="980" ry="330" fill="none" stroke="#5aa2ff" stroke-opacity="0.2" stroke-width="2" transform="rotate(-12 1200 760)"/><ellipse cx="1200" cy="760" rx="1160" ry="390" fill="none" stroke="#5aa2ff" stroke-opacity="0.2" stroke-width="2" transform="rotate(-12 1200 760)"/><circle cx="566.8" cy="631.4" r="0.6" fill="#cfe2ff" opacity="0.3"/><circle cx="1737.4" cy="241.6" r="1.3" fill="#cfe2ff" opacity="0.4"/><circle cx="439.0" cy="157.7" r="1.5" fill="#cfe2ff" opacity="0.7"/><circle cx="2184.3" cy="1306.5" r="1.9" fill="#cfe2ff" opacity="0.4"/><circle cx="1138.1" cy="553.8" r="1.8" fill="#cfe2ff" opacity="0.3"/><circle cx="591.7" cy="717.2" r="1.1" fill="#cfe2ff" opacity="0.3"/><circle cx="1795.3" cy="973.4" r="1.4" fill="#cfe2ff" opacity="0.5"/><circle cx="169.8" cy="315.3" r="2.1" fill="#cfe2ff" opacity="0.7"/><circle cx="1434.2" cy="1052.7" r="0.8" fill="#cfe2ff" opacity="0.6"/><circle cx="735.5" cy="706.9" r="1.1" fill="#cfe2ff" opacity="0.7"/><circle cx="613.9" cy="238.5" r="0.8" fill="#cfe2ff" opacity="0.2"/><circle cx="1987.5" cy="610.6" r="2.0" fill="#cfe2ff" opacity="0.5"/><circle cx="982.0" cy="1005.1" r="1.5" fill="#cfe2ff" opacity="0.3"/><circle cx="963.7" cy="958.8" r="0.8" fill="#cfe2ff" opacity="0.2"/><circle cx="1047.3" cy="1064.9" r="2.0" fill="#cfe2ff" opacity="0.4"/><circle cx="986.9" cy="766.0" r="1.3" fill="#cfe2ff" opacity="0.5"/><circle cx="739.0" cy="658.4" r="0.6" fill="#cfe2ff" opacity="0.2"/><circle cx="973.8" cy="450.5" r="2.2" fill="#cfe2ff" opacity="0.7"/><circle cx="1687.9" cy="1298.5" r="1.3" fill="#cfe2ff" opacity="0.6"/><circle cx="2179.5" cy="649.0" r="1.1" fill="#cfe2ff" opacity="0.5"/><circle cx="1257.3" cy="1225.6" r="1.8" fill="#cfe2ff" opacity="0.7"/><circle cx="2027.2" cy="213.3" r="1.2" fill="#cfe2ff" opacity="0.3"/><circle cx="1321.4" cy="100.3" r="1.3" fill="#cfe2ff" opacity="0.7"/><circle cx="2292.6" cy="69.1" r="1.5" fill="#cfe2ff" opacity="0.6"/><circle cx="371.7" cy="35.7" r="1.2" fill="#cfe2ff" opacity="0.7"/><circle cx="254.1" cy="1013.9" r="1.8" fill="#cfe2ff" opacity="0.6"/><circle cx="1839.5" cy="1240.0" r="1.7" fill="#cfe2ff" opacity="0.6"/><circle cx="102.4" cy="1139.0" r="1.6" fill="#cfe2ff" opacity="0.7"/><circle cx="1911.9" cy="319.2" r="1.8" fill="#cfe2ff" opacity="0.6"/><circle cx="241.1" cy="1039.3" r="2.0" fill="#cfe2ff" opacity="0.6"/><circle cx="883.1" cy="333.1" r="1.4" fill="#cfe2ff" opacity="0.2"/><circle cx="975.9" cy="68.2" r="0.9" fill="#cfe2ff" opacity="0.5"/><circle cx="410.7" cy="495.3" r="1.3" fill="#cfe2ff" opacity="0.3"/><circle cx="1527.0" cy="913.9" r="2.0" fill="#cfe2ff" opacity="0.6"/><circle cx="1437.7" cy="104.8" r="1.9" fill="#cfe2ff" opacity="0.6"/><circle cx="623.9" cy="1104.3" r="1.2" fill="#cfe2ff" opacity="0.3"/><circle cx="1543.8" cy="124.8" r="2.0" fill="#cfe2ff" opacity="0.3"/><circle cx="612.4" cy="423.9" r="1.6" fill="#cfe2ff" opacity="0.6"/><circle cx="2037.7" cy="355.7" r="1.1" fill="#cfe2ff" opacity="0.5"/><circle cx="1871.7" cy="800.9" r="1.6" fill="#cfe2ff" opacity="0.3"/><circle cx="246.7" cy="1049.6" r="1.8" fill="#cfe2ff" opacity="0.6"/><circle cx="875.8" cy="311.9" r="1.9" fill="#cfe2ff" opacity="0.3"/><circle cx="1753.8" cy="406.2" r="1.2" fill="#cfe2ff" opacity="0.3"/><circle cx="247.7" cy="482.0" r="1.0" fill="#cfe2ff" opacity="0.3"/><circle cx="2313.0" cy="675.1" r="0.9" fill="#cfe2ff" opacity="0.4"/><circle cx="1900.9" cy="64.0" r="2.1" fill="#cfe2ff" opacity="0.2"/><circle cx="441.1" cy="943.0" r="1.0" fill="#cfe2ff" opacity="0.7"/><circle cx="1056.5" cy="387.9" r="1.2" fill="#cfe2ff" opacity="0.2"/><circle cx="57.4" cy="396.5" r="1.1" fill="#cfe2ff" opacity="0.7"/><circle cx="894.0" cy="186.3" r="2.1" fill="#cfe2ff" opacity="0.6"/><circle cx="382.2" cy="1065.0" r="0.6" fill="#cfe2ff" opacity="0.2"/><circle cx="2366.3" cy="222.7" r="1.3" fill="#cfe2ff" opacity="0.3"/><circle cx="1959.8" cy="453.7" r="1.8" fill="#cfe2ff" opacity="0.7"/><circle cx="1237.8" cy="973.6" r="1.4" fill="#cfe2ff" opacity="0.3"/><circle cx="873.3" cy="1149.1" r="1.4" fill="#cfe2ff" opacity="0.3"/><circle cx="132.0" cy="1102.1" r="1.0" fill="#cfe2ff" opacity="0.6"/><circle cx="677.5" cy="227.4" r="1.6" fill="#cfe2ff" opacity="0.5"/><circle cx="2388.9" cy="1239.0" r="0.8" fill="#cfe2ff" opacity="0.5"/><circle cx="1395.7" cy="857.9" r="1.4" fill="#cfe2ff" opacity="0.7"/><circle cx="682.6" cy="936.3" r="1.9" fill="#cfe2ff" opacity="0.3"/><circle cx="2016.2" cy="498.5" r="2.0" fill="#cfe2ff" opacity="0.2"/><circle cx="2107.4" cy="1053.1" r="0.9" fill="#cfe2ff" opacity="0.6"/><circle cx="1668.4" cy="44.7" r="1.7" fill="#cfe2ff" opacity="0.6"/><circle cx="330.8" cy="987.4" r="1.6" fill="#cfe2ff" opacity="0.6"/><circle cx="1104.1" cy="43.0" r="1.5" fill="#cfe2ff" opacity="0.5"/><circle cx="1628.0" cy="974.4" r="1.3" fill="#cfe2ff" opacity="0.5"/><circle cx="1147.6" cy="912.2" r="1.6" fill="#cfe2ff" opacity="0.6"/><circle cx="929.0" cy="875.3" r="1.6" fill="#cfe2ff" opacity="0.6"/><circle cx="2183.9" cy="74.7" r="1.8" fill="#cfe2ff" opacity="0.3"/><circle cx="2223.5" cy="1125.8" r="0.9" fill="#cfe2ff" opacity="0.5"/><circle cx="844.6" cy="519.3" r="1.6" fill="#cfe2ff" opacity="0.6"/><circle cx="1048.3" cy="834.5" r="0.8" fill="#cfe2ff" opacity="0.3"/><circle cx="866.3" cy="603.8" r="1.0" fill="#cfe2ff" opacity="0.5"/><circle cx="241.7" cy="427.8" r="1.1" fill="#cfe2ff" opacity="0.2"/><circle cx="2307.9" cy="129.1" r="1.5" fill="#cfe2ff" opacity="0.6"/><circle cx="2190.8" cy="270.4" r="0.9" fill="#cfe2ff" opacity="0.2"/><circle cx="545.9" cy="14.4" r="0.9" fill="#cfe2ff" opacity="0.3"/><circle cx="2034.9" cy="872.1" r="1.8" fill="#cfe2ff" opacity="0.2"/><circle cx="235.3" cy="1008.0" r="1.7" fill="#cfe2ff" opacity="0.2"/><circle cx="1960.7" cy="1269.8" r="0.9" fill="#cfe2ff" opacity="0.5"/><circle cx="2324.9" cy="514.3" r="1.5" fill="#cfe2ff" opacity="0.4"/><circle cx="966.6" cy="44.7" r="1.7" fill="#cfe2ff" opacity="0.2"/><circle cx="513.3" cy="1214.1" r="1.0" fill="#cfe2ff" opacity="0.6"/><circle cx="521.4" cy="301.6" r="1.5" fill="#cfe2ff" opacity="0.7"/><circle cx="1802.1" cy="820.0" r="0.7" fill="#cfe2ff" opacity="0.5"/><circle cx="267.1" cy="277.8" r="1.2" fill="#cfe2ff" opacity="0.5"/><circle cx="708.2" cy="1249.7" r="0.6" fill="#cfe2ff" opacity="0.3"/><circle cx="2010.9" cy="228.8" r="1.2" fill="#cfe2ff" opacity="0.6"/><circle cx="639.5" cy="364.9" r="1.3" fill="#cfe2ff" opacity="0.4"/><circle cx="62.8" cy="686.1" r="0.8" fill="#cfe2ff" opacity="0.4"/><circle cx="855.6" cy="617.3" r="1.3" fill="#cfe2ff" opacity="0.6"/><circle cx="1387.0" cy="695.4" r="0.8" fill="#cfe2ff" opacity="0.3"/><circle cx="125.4" cy="959.7" r="1.5" fill="#cfe2ff" opacity="0.3"/><circle cx="2170.5" cy="614.4" r="1.4" fill="#cfe2ff" opacity="0.4"/><circle cx="931.4" cy="1157.7" r="1.3" fill="#cfe2ff" opacity="0.3"/><circle cx="2385.3" cy="1197.8" r="2.0" fill="#cfe2ff" opacity="0.3"/><circle cx="323.2" cy="1317.2" r="1.3" fill="#cfe2ff" opacity="0.4"/><circle cx="92.3" cy="588.9" r="0.8" fill="#cfe2ff" opacity="0.5"/><circle cx="1480.2" cy="1271.3" r="1.2" fill="#cfe2ff" opacity="0.3"/><circle cx="2142.6" cy="96.2" r="1.4" fill="#cfe2ff" opacity="0.7"/><circle cx="2343.7" cy="699.7" r="1.1" fill="#cfe2ff" opacity="0.7"/><circle cx="1113.3" cy="695.1" r="1.6" fill="#cfe2ff" opacity="0.4"/><circle cx="1691.5" cy="1256.9" r="1.0" fill="#cfe2ff" opacity="0.4"/><circle cx="246.1" cy="1010.7" r="1.6" fill="#cfe2ff" opacity="0.2"/><circle cx="1202.9" cy="499.2" r="1.0" fill="#cfe2ff" opacity="0.3"/><circle cx="1341.8" cy="650.4" r="0.7" fill="#cfe2ff" opacity="0.3"/><circle cx="833.8" cy="393.2" r="1.6" fill="#cfe2ff" opacity="0.2"/><circle cx="1734.7" cy="1224.8" r="1.3" fill="#cfe2ff" opacity="0.5"/><circle cx="2152.3" cy="131.5" r="2.1" fill="#cfe2ff" opacity="0.6"/><circle cx="1973.4" cy="645.5" r="0.7" fill="#cfe2ff" opacity="0.7"/><circle cx="2205.5" cy="993.9" r="1.9" fill="#cfe2ff" opacity="0.6"/><circle cx="2119.0" cy="476.1" r="1.0" fill="#cfe2ff" opacity="0.2"/><circle cx="97.1" cy="873.4" r="1.0" fill="#cfe2ff" opacity="0.7"/><circle cx="1144.6" cy="1217.5" r="1.3" fill="#cfe2ff" opacity="0.7"/><circle cx="2197.6" cy="721.6" r="1.7" fill="#cfe2ff" opacity="0.7"/><circle cx="408.6" cy="609.0" r="1.7" fill="#cfe2ff" opacity="0.5"/><circle cx="2380.1" cy="55.1" r="2.1" fill="#cfe2ff" opacity="0.5"/><circle cx="2371.8" cy="767.2" r="1.8" fill="#cfe2ff" opacity="0.7"/><circle cx="811.6" cy="491.9" r="1.2" fill="#cfe2ff" opacity="0.7"/><circle cx="1313.6" cy="66.4" r="1.1" fill="#cfe2ff" opacity="0.3"/><circle cx="662.9" cy="494.3" r="2.0" fill="#cfe2ff" opacity="0.5"/><circle cx="702.7" cy="282.9" r="1.7" fill="#cfe2ff" opacity="0.5"/><circle cx="655.6" cy="1147.7" r="1.8" fill="#cfe2ff" opacity="0.3"/><circle cx="1148.5" cy="1346.5" r="1.5" fill="#cfe2ff" opacity="0.3"/><circle cx="475.0" cy="1008.8" r="1.5" fill="#cfe2ff" opacity="0.4"/><circle cx="864.3" cy="658.5" r="1.5" fill="#cfe2ff" opacity="0.5"/><circle cx="2117.8" cy="1050.4" r="2.2" fill="#cfe2ff" opacity="0.2"/><circle cx="300.1" cy="888.8" r="2.1" fill="#cfe2ff" opacity="0.5"/><circle cx="2000.0" cy="201.5" r="2.1" fill="#cfe2ff" opacity="0.5"/><circle cx="2218.0" cy="881.2" r="1.0" fill="#cfe2ff" opacity="0.4"/><circle cx="609.2" cy="708.7" r="1.9" fill="#cfe2ff" opacity="0.3"/><circle cx="1695.4" cy="86.0" r="1.2" fill="#cfe2ff" opacity="0.2"/><circle cx="2306.7" cy="685.0" r="0.8" fill="#cfe2ff" opacity="0.3"/><circle cx="2306.5" cy="1313.2" r="1.5" fill="#cfe2ff" opacity="0.5"/><circle cx="1706.8" cy="96.4" r="1.1" fill="#cfe2ff" opacity="0.3"/><circle cx="2276.6" cy="948.4" r="0.6" fill="#cfe2ff" opacity="0.3"/><circle cx="1614.5" cy="872.7" r="2.0" fill="#cfe2ff" opacity="0.2"/><circle cx="2312.6" cy="426.6" r="1.3" fill="#cfe2ff" opacity="0.3"/><circle cx="65.9" cy="551.1" r="1.1" fill="#cfe2ff" opacity="0.7"/><circle cx="1526.3" cy="235.9" r="0.7" fill="#cfe2ff" opacity="0.6"/><circle cx="2023.5" cy="1077.5" r="1.7" fill="#cfe2ff" opacity="0.2"/><circle cx="1422.1" cy="1055.7" r="1.4" fill="#cfe2ff" opacity="0.4"/><circle cx="817.0" cy="402.6" r="1.5" fill="#cfe2ff" opacity="0.2"/><circle cx="694.8" cy="715.7" r="1.3" fill="#cfe2ff" opacity="0.7"/><circle cx="1671.5" cy="668.1" r="1.4" fill="#cfe2ff" opacity="0.6"/><circle cx="1503.7" cy="176.8" r="0.9" fill="#cfe2ff" opacity="0.5"/><circle cx="600.6" cy="106.4" r="0.8" fill="#cfe2ff" opacity="0.2"/><circle cx="1202.2" cy="60.8" r="0.9" fill="#cfe2ff" opacity="0.5"/><circle cx="476.4" cy="1231.1" r="1.0" fill="#cfe2ff" opacity="0.7"/><circle cx="1899.0" cy="332.8" r="2.1" fill="#cfe2ff" opacity="0.7"/><circle cx="1197.4" cy="982.6" r="2.0" fill="#cfe2ff" opacity="0.3"/><circle cx="1897.5" cy="361.9" r="1.4" fill="#cfe2ff" opacity="0.5"/><circle cx="1904.8" cy="957.3" r="2.1" fill="#cfe2ff" opacity="0.2"/><circle cx="1910.3" cy="1309.9" r="1.2" fill="#cfe2ff" opacity="0.5"/><circle cx="150.7" cy="344.0" r="1.9" fill="#cfe2ff" opacity="0.3"/><circle cx="1354.1" cy="1026.8" r="1.4" fill="#cfe2ff" opacity="0.2"/><circle cx="705.5" cy="6.8" r="1.2" fill="#cfe2ff" opacity="0.6"/><circle cx="1470.8" cy="30.9" r="1.9" fill="#cfe2ff" opacity="0.7"/><circle cx="812.8" cy="778.8" r="1.6" fill="#cfe2ff" opacity="0.6"/><circle cx="1996.0" cy="953.5" r="2.1" fill="#cfe2ff" opacity="0.7"/><circle cx="1427.3" cy="920.1" r="0.7" fill="#cfe2ff" opacity="0.4"/><circle cx="685.2" cy="47.2" r="1.5" fill="#cfe2ff" opacity="0.6"/><circle cx="499.4" cy="605.0" r="0.7" fill="#cfe2ff" opacity="0.7"/><circle cx="1204.8" cy="1095.1" r="1.3" fill="#cfe2ff" opacity="0.2"/><circle cx="1973.3" cy="240.5" r="0.8" fill="#cfe2ff" opacity="0.5"/><circle cx="500.8" cy="138.2" r="1.8" fill="#cfe2ff" opacity="0.4"/><circle cx="1174.8" cy="388.0" r="1.3" fill="#cfe2ff" opacity="0.6"/><circle cx="2349.5" cy="118.4" r="0.9" fill="#cfe2ff" opacity="0.2"/><circle cx="735.6" cy="406.2" r="1.5" fill="#cfe2ff" opacity="0.7"/><circle cx="953.7" cy="1025.0" r="0.6" fill="#cfe2ff" opacity="0.7"/><circle cx="1964.0" cy="266.6" r="1.6" fill="#cfe2ff" opacity="0.4"/><circle cx="2303.5" cy="1168.5" r="1.4" fill="#cfe2ff" opacity="0.7"/><circle cx="1972.3" cy="382.9" r="0.8" fill="#cfe2ff" opacity="0.6"/><circle cx="687.2" cy="40.1" r="0.8" fill="#cfe2ff" opacity="0.3"/><circle cx="1831.3" cy="164.9" r="1.2" fill="#cfe2ff" opacity="0.7"/><circle cx="2082.0" cy="623.4" r="1.5" fill="#cfe2ff" opacity="0.3"/><circle cx="1776.9" cy="1142.5" r="1.9" fill="#cfe2ff" opacity="0.7"/><circle cx="1924.1" cy="184.1" r="0.9" fill="#cfe2ff" opacity="0.6"/><circle cx="1541.1" cy="444.5" r="1.5" fill="#cfe2ff" opacity="0.4"/><circle cx="811.6" cy="809.9" r="1.2" fill="#cfe2ff" opacity="0.7"/><circle cx="1484.6" cy="41.1" r="2.2" fill="#cfe2ff" opacity="0.7"/><circle cx="1127.1" cy="456.5" r="1.0" fill="#cfe2ff" opacity="0.2"/><circle cx="2343.0" cy="797.0" r="0.9" fill="#cfe2ff" opacity="0.5"/><circle cx="1586.4" cy="1212.2" r="1.5" fill="#cfe2ff" opacity="0.2"/><circle cx="1534.5" cy="1295.1" r="1.1" fill="#cfe2ff" opacity="0.7"/><circle cx="1434.4" cy="785.1" r="1.7" fill="#cfe2ff" opacity="0.2"/><circle cx="311.4" cy="1321.6" r="0.8" fill="#cfe2ff" opacity="0.3"/><circle cx="1735.9" cy="1300.8" r="2.2" fill="#cfe2ff" opacity="0.4"/><circle cx="428.8" cy="1312.4" r="0.9" fill="#cfe2ff" opacity="0.2"/><circle cx="1591.4" cy="1012.9" r="1.5" fill="#cfe2ff" opacity="0.4"/><circle cx="1106.3" cy="864.8" r="2.2" fill="#cfe2ff" opacity="0.5"/><circle cx="1564.1" cy="1243.9" r="1.9" fill="#cfe2ff" opacity="0.2"/><circle cx="1276.1" cy="913.0" r="1.5" fill="#cfe2ff" opacity="0.3"/><circle cx="379.7" cy="297.0" r="1.9" fill="#cfe2ff" opacity="0.4"/><circle cx="2352.5" cy="371.2" r="0.9" fill="#cfe2ff" opacity="0.3"/><circle cx="1452.9" cy="42.9" r="1.0" fill="#cfe2ff" opacity="0.4"/><circle cx="222.7" cy="1230.1" r="1.1" fill="#cfe2ff" opacity="0.4"/><circle cx="1247.8" cy="399.9" r="1.4" fill="#cfe2ff" opacity="0.5"/><circle cx="1067.0" cy="596.3" r="1.6" fill="#cfe2ff" opacity="0.5"/><circle cx="322.4" cy="886.9" r="1.3" fill="#cfe2ff" opacity="0.5"/><circle cx="2221.4" cy="1181.0" r="1.7" fill="#cfe2ff" opacity="0.2"/><circle cx="91.8" cy="51.2" r="2.2" fill="#cfe2ff" opacity="0.5"/><circle cx="290.9" cy="48.8" r="1.2" fill="#cfe2ff" opacity="0.3"/><circle cx="548.8" cy="917.8" r="0.7" fill="#cfe2ff" opacity="0.2"/><circle cx="1075.9" cy="342.7" r="0.9" fill="#cfe2ff" opacity="0.7"/><circle cx="584.1" cy="1177.0" r="2.0" fill="#cfe2ff" opacity="0.3"/><circle cx="1030.9" cy="1032.2" r="1.6" fill="#cfe2ff" opacity="0.4"/><circle cx="980.9" cy="174.4" r="1.5" fill="#cfe2ff" opacity="0.3"/><circle cx="1604.1" cy="689.3" r="2.0" fill="#cfe2ff" opacity="0.2"/><circle cx="586.4" cy="1214.3" r="1.7" fill="#cfe2ff" opacity="0.7"/><circle cx="1822.3" cy="642.1" r="1.3" fill="#cfe2ff" opacity="0.5"/><circle cx="264.1" cy="693.8" r="1.9" fill="#cfe2ff" opacity="0.6"/><circle cx="804.2" cy="1084.5" r="1.8" fill="#cfe2ff" opacity="0.3"/><circle cx="1619.9" cy="791.2" r="1.0" fill="#cfe2ff" opacity="0.6"/><circle cx="354.0" cy="756.4" r="1.1" fill="#cfe2ff" opacity="0.3"/><circle cx="497.8" cy="964.9" r="0.8" fill="#cfe2ff" opacity="0.5"/><circle cx="1901.7" cy="1104.6" r="1.8" fill="#cfe2ff" opacity="0.6"/><circle cx="1098.6" cy="746.1" r="2.0" fill="#cfe2ff" opacity="0.7"/><circle cx="145.7" cy="928.2" r="0.8" fill="#cfe2ff" opacity="0.3"/><circle cx="96.8" cy="214.3" r="1.5" fill="#cfe2ff" opacity="0.2"/><rect width="2400" height="1350" fill="url(#vignette)"/></svg>